<?xml version="1.0" encoding="utf-8"?>
<!-- Generator: Adobe Illustrator 21.1.0, SVG Export Plug-In . SVG Version: 6.00 Build 0)  -->
<svg version="1.1" id="Layer_1" xmlns="http://www.w3.org/2000/svg" xmlns:xlink="http://www.w3.org/1999/xlink" x="0px" y="0px"
	 viewBox="0 0 274.4 269.2" style="enable-background:new 0 0 274.4 269.2;" xml:space="preserve">
<rect width="10.3" height="269.2"/>
<rect x="134.6" y="129.5" transform="matrix(4.504758e-11 -1 1 4.504758e-11 -124.359 403.8462)" width="10.3" height="269.2"/>
<circle cx="34.5" cy="58.2" r="11.5"/>
<circle cx="91.8" cy="108.2" r="11.5"/>
<circle cx="158.3" cy="123.1" r="11.5"/>
<circle cx="216.4" cy="174.4" r="11.5"/>
<rect x="60.6" y="45.2" transform="matrix(0.6574 -0.7535 0.7535 0.6574 -41.057 76.0641)" width="5" height="76.1"/>
<polygon points="214.8,176.3 157.1,125.4 92.8,110.6 94,105.8 159.5,120.9 218.1,172.5 "/>
<polygon points="214.7,176.3 237.5,196.9 244.7,203.4 231.8,209.3 269.7,222.6 252.8,186.2 248.1,199.6 240.9,193.1 218.1,172.5 "/>
</svg>
