<?xml version="1.0" encoding="utf-8"?>
<!-- Generator: Adobe Illustrator 21.1.0, SVG Export Plug-In . SVG Version: 6.00 Build 0)  -->
<svg version="1.1" id="Layer_1" xmlns="http://www.w3.org/2000/svg" xmlns:xlink="http://www.w3.org/1999/xlink" x="0px" y="0px"
	 viewBox="0 0 55.9 46.9" style="enable-background:new 0 0 55.9 46.9;" xml:space="preserve">
<path d="M54.1,41.6c2.4-2.4,2.4-6.2,0-8.6c0,0,0,0,0,0L36.8,15.7l6-1.4c0,0,0.1,0,0.1,0C46,13.4,48,10.9,48,7.9c0-3.3-2.7-6.1-6-6.1
	L21.9,1.1C16,1.1,10.5,3.4,6.4,7.5c-8.5,8.5-8.5,22.4,0,31l6.7,6.7c2.4,2.4,6.2,2.4,8.6,0c0.7-0.7,1.1-1.5,1.4-2.3
	c2.3,1.4,5.4,1.1,7.4-0.9c0.9-0.9,1.4-1.9,1.6-3c2,0.5,4.2,0,5.8-1.6c0.6-0.6,1.1-1.3,1.4-2.1l6.3,6.3c0,0,0,0,0,0
	C47.9,43.9,51.8,43.9,54.1,41.6z M15.6,42.6L13,39.9c-1-1-1-2.5,0-3.5c1-1,2.5-1,3.5,0l2.7,2.7c1,1,1,2.5,0,3.5
	C18.1,43.5,16.6,43.5,15.6,42.6z M24.5,39.4l-4.8-4.8c-1-1-1-2.5,0-3.5c1-1,2.5-1,3.5,0l4.8,4.8c1,1,1,2.5,0,3.5
	C27,40.4,25.4,40.4,24.5,39.4z M35.4,34.8c-1,1-2.5,1-3.5,0l-5.5-5.5c-1-1-1-2.5,0-3.5c1-1,2.5-1,3.5,0l5.5,5.5
	C36.3,32.3,36.3,33.9,35.4,34.8z M48.1,39L32.4,23.3c-2.4-2.4-6.2-2.4-8.6,0c-1,1-1.6,2.3-1.7,3.6c-1.8-0.2-3.6,0.4-5,1.7
	c-1,1-1.6,2.3-1.7,3.6c-1.8-0.2-3.6,0.4-5,1.7c-0.6,0.6-1.1,1.3-1.4,2.1L9,35.9c-7.1-7.1-7.1-18.7,0-25.8c3.4-3.4,8-5.3,12.9-5.4
	L42,5.4c1.3,0,2.4,1.1,2.4,2.4c0,1.9-1.7,2.7-2.5,2.9L23,15.1c-1,0.2-1.6,1.2-1.4,2.2c0.1,0.3,0.3,0.6,0.5,0.9
	c0.4,0.4,1.1,0.6,1.7,0.5l8.8-2l18.9,18.9c0,0,0,0,0,0c0.9,1,0.9,2.5,0,3.4C50.6,40,49.1,40,48.1,39z"/>
</svg>
