<?xml version="1.0" encoding="utf-8"?>
<!-- Generator: Adobe Illustrator 21.1.0, SVG Export Plug-In . SVG Version: 6.00 Build 0)  -->
<svg version="1.1" id="Layer_1" xmlns="http://www.w3.org/2000/svg" xmlns:xlink="http://www.w3.org/1999/xlink" x="0px" y="0px"
	 viewBox="0 0 85.6 83.2" style="enable-background:new 0 0 85.6 83.2;" xml:space="preserve">
<path d="M75.2,1.2L75.2,1.2L59.9,18.8c-5.5-2.3-11.1-3.4-16.8-3.2c-24.3,0.6-41,23.1-41.7,24.1L0,41.5l1.6,1.8
	c6.8,8.3,13.8,14.5,21.1,18.5L7.5,79.3l4.5,3.9l1.1-1.2l0,0L80.8,3.9L76.3,0L75.2,1.2z M37.1,35.7c2.6-2.9,6.7-3.7,10-2.2L36.4,46
	C34.4,42.9,34.5,38.7,37.1,35.7z M7.7,41.4C12,36.3,25.8,22,43.4,21.5c4.2-0.1,8.3,0.6,12.4,2.1L51.1,29c-5.9-3.6-13.8-2.5-18.5,2.9
	s-4.7,13.4-0.3,18.8l-5.7,6.5C20.2,53.9,13.9,48.6,7.7,41.4z M85.6,39.5l1.4,1.8l-1.4,1.8c-0.7,1-17.5,23.5-41.7,24.1
	c-0.3,0-0.7,0-1,0c-2.9,0-5.8-0.3-8.7-1l4.5-5.2c1.4,0.2,2.8,0.3,4.1,0.3c0.3,0,0.5,0,0.8,0c17.6-0.4,31.3-14.7,35.7-19.9
	c-4.3-5-8.6-9.1-13-12.2l3.9-4.5C75.6,28.5,80.7,33.4,85.6,39.5z"/>
</svg>
