<?xml version="1.0" encoding="utf-8"?>
<!-- Generator: Adobe Illustrator 21.1.0, SVG Export Plug-In . SVG Version: 6.00 Build 0)  -->
<svg version="1.1" id="Layer_1" xmlns="http://www.w3.org/2000/svg" xmlns:xlink="http://www.w3.org/1999/xlink" x="0px" y="0px"
	 viewBox="0 0 54.5 60.5" style="enable-background:new 0 0 54.5 60.5;" xml:space="preserve">
<g>
	<path d="M27.5,7.3c11.8,0,21.4,9.3,21.4,20.7c0,6.7-3.1,12.6-8.4,16.5l-1.7,1c-0.5,0.3-0.7,0.9-0.4,1.4c0.2,0.3,0.5,0.5,0.8,0.5
		c0.2,0,0.2,0,0.4-0.2l0.1-0.2v5.4c0,1.2-0.9,2.1-2.1,2.1H37c-0.5,0-0.9-0.4-0.9-1.2c0-0.7-0.7-1.4-1.4-1.4c-0.8,0-1.5,0.6-1.5,1.4
		c0,0.8-0.9,1.4-2,1.4c-1.1,0-2-0.6-2-1.4c0-0.8-0.7-1.4-1.6-1.4c-0.9,0-1.6,0.6-1.6,1.4c0,0.8-0.9,1.4-2,1.4c-1.1,0-2.1-0.7-2-1.4
		c0-0.7-0.6-1.4-1.2-1.4c-0.9-0.1-1.6,0.5-1.6,1.4c0,0.8-0.4,1.3-0.9,1.3h-0.9c-0.9,0-1.6-0.7-1.6-1.6v-5.9l0.1,0.3
		c0.2,0.1,0,0.2,0.1,0.2c0.3,0,0.7-0.2,0.9-0.5c0.3-0.5,0.2-1.1-0.3-1.4l-1.9-1.2h-0.1c-4.8-3.8-8.1-9.6-8.1-16.2
		C6.1,16.6,15.8,7.3,27.5,7.3 M27.5,3.5C14.3,3.5,3.4,14.3,3.4,27.6c0,7.2,3.3,14.1,9.1,18.8l0.2,0.1v0.2v5.5c0,3.8,2.4,5.1,4.6,5.1
		h0.9c0.9,0,1.8-0.3,2.4-0.9c0.9,0.7,2.1,1.1,3.4,1.1c1.5,0,2.8-0.5,3.7-1.4c0.9,0.9,2.2,1.4,3.7,1.4c1.3,0,2.5-0.4,3.4-1.1
		c0.6,0.6,1.5,0.9,2.4,0.9H38c2.1,0,4.7-1.3,4.7-5.1v-5.5v-0.5c5.8-4.5,9.1-11.3,9.1-18.8C51.5,14.3,40.8,3.5,27.5,3.5L27.5,3.5z"/>
	<path d="M28.8,40.1c-0.8-0.9-2.1-0.9-2.9,0c-0.8,0.9-1.5,1.6-1.5,1.6C24.2,42,24,42.5,24,42.9c0,1.1,0.8,2,1.8,2
		c0.7,0,1.2-0.4,1.5-1c0.3,0.6,0.9,1,1.5,1c1,0,1.8-0.9,1.8-2c0-0.5-0.1-0.9-0.4-1.2L28.8,40.1z"/>
	<path d="M24.3,28l-10.7-1c0,0-1.1,0-1.4,0.6c-0.5,1-0.8,2-0.8,3.2c0,3.8,3.1,7,7,7s7-3.1,7-7c0-0.8-0.2-1.6-0.4-2.4
		C24.8,28.1,24.3,28,24.3,28z"/>
	<path d="M43.3,27.7c-0.3-0.7-1.4-0.6-1.4-0.6l-10.7,1c0,0-0.5,0.1-0.6,0.5c-0.2,0.8-0.4,1.5-0.4,2.4c0,3.8,3.1,7,7,7
		c3.8,0,7-3.1,7-7C44.1,29.7,43.8,28.7,43.3,27.7z"/>
</g>
</svg>
