<?xml version="1.0" encoding="utf-8"?>
<!-- Generator: Adobe Illustrator 21.1.0, SVG Export Plug-In . SVG Version: 6.00 Build 0)  -->
<svg version="1.1" id="Layer_1" xmlns="http://www.w3.org/2000/svg" xmlns:xlink="http://www.w3.org/1999/xlink" x="0px" y="0px"
	 viewBox="0 0 299.5 299.5" style="enable-background:new 0 0 299.5 299.5;" xml:space="preserve">
<circle cx="54.6" cy="70.9" r="11.5"/>
<circle cx="111.9" cy="120.9" r="11.5"/>
<circle cx="236.5" cy="187.1" r="11.5"/>
<rect x="80.8" y="57.9" transform="matrix(0.6574 -0.7535 0.7535 0.6574 -43.7602 95.6254)" width="5" height="76.1"/>
<polygon points="234.8,189 257.6,209.6 264.8,216.1 251.9,222 289.8,235.3 272.9,198.9 268.2,212.3 261,205.8 238.2,185.2 "/>
<rect x="-54" y="141.7" transform="matrix(0.7071 -0.7071 0.7071 0.7071 -62.0253 149.7329)" width="407.5" height="16"/>
<g>
	<polygon points="149.7,126.7 114.1,118.5 112.9,123.3 145.5,130.8 	"/>
	<path d="M189.9,135.8c0-0.7-0.1-1.4-0.2-2.1l-13.4,13.4c0.7,0.1,1.4,0.2,2.1,0.2c2.5,0,4.8-0.8,6.7-2.2l49.8,43.9l3.3-3.8
		l-49.8-43.8C189.4,139.7,189.9,137.8,189.9,135.8z"/>
</g>
<g>
	<polygon points="30.4,244.8 30.4,12.7 20.1,12.7 20.1,254.8 	"/>
	<polygon points="52.7,271.6 42.4,281.9 294.5,281.9 294.5,271.6 	"/>
</g>
</svg>
